<?xml version="1.0" encoding="UTF-8"?>
<svg version="1.1" xmlns="http://www.w3.org/2000/svg" width="563" height="126">
<path d="M0 0 C6.67184298 -0.09213132 13.34145406 -0.17168182 20.01342773 -0.21972656 C22.28010563 -0.23976707 24.54673232 -0.26700711 26.81323242 -0.30175781 C30.08264856 -0.35060868 33.35137757 -0.37304512 36.62109375 -0.390625 C37.62458359 -0.41127014 38.62807343 -0.43191528 39.66197205 -0.45318604 C47.25387798 -0.45557452 53.12797526 1.18457862 59.3046875 5.67578125 C65.21633767 11.83742657 67.1464558 16.40626695 67.4375 24.9375 C67.23195117 32.40840951 66.05416187 36.75459081 60.94140625 42.1875 C53.66716438 49.05693583 47.89198138 50.31622102 38.125 50.125 C37.24585938 50.11597656 36.36671875 50.10695312 35.4609375 50.09765625 C33.3071729 50.07424577 31.15354986 50.0383801 29 50 C29.05220703 51.80984375 29.05220703 51.80984375 29.10546875 53.65625 C29.13362984 55.27081928 29.16092749 56.88540379 29.1875 58.5 C29.21263672 59.29148438 29.23777344 60.08296875 29.26367188 60.8984375 C29.36250172 68.93659832 27.1902668 75.68751335 22 82 C13.81284353 88.13208076 6.02629331 89.03092935 -4 88 C-11.64518194 85.39187804 -16.47637806 80.15126224 -20 73 C-21.63756496 68.16622393 -21.05994726 63.0355699 -21 58 C-17.37 58 -13.74 58 -10 58 C-9.91363281 58.80824219 -9.82726563 59.61648437 -9.73828125 60.44921875 C-8.87979449 67.1670078 -8.87979449 67.1670078 -5.875 73.125 C-2.30880711 75.45077797 0.71651554 76.81269935 5 77 C10.2521003 75.51190491 12.98479384 73.52280925 16 69 C17.39560045 66.20879909 17.21808288 63.79794308 17.31640625 60.6796875 C17.37924805 58.79443359 17.37924805 58.79443359 17.44335938 56.87109375 C17.48267578 55.55238281 17.52199219 54.23367187 17.5625 52.875 C17.60569512 51.53514249 17.64930973 50.19529844 17.69335938 48.85546875 C17.79970981 45.57042185 17.90173808 42.28529719 18 39 C19.22517334 38.98598145 19.22517334 38.98598145 20.47509766 38.97167969 C24.19233506 38.91784493 27.908332 38.83422006 31.625 38.75 C32.91019531 38.73582031 34.19539063 38.72164062 35.51953125 38.70703125 C44.61926886 38.63372 44.61926886 38.63372 52 34 C54.74292373 31.10598301 55.4505237 29.09547322 55.5 25.125 C55.39419637 21.53825706 55.00304856 19.32326456 52.75 16.5 C47.95634815 12.14213468 44.32666112 11.68476738 37.953125 11.5859375 C37.18192322 11.56657135 36.41072144 11.5472052 35.6161499 11.5272522 C33.16087795 11.46762923 30.70555867 11.42114086 28.25 11.375 C26.58201118 11.33680425 24.91404174 11.29775159 23.24609375 11.2578125 C19.16416526 11.16033361 15.08243508 11.08063021 11 11 C11 22.22 11 33.44 11 45 C7.37 45 3.74 45 0 45 C0 30.15 0 15.3 0 0 Z " fill="#615EFC" transform="translate(59,38)"/>
<path d="M0 0 C4.95 0 9.9 0 15 0 C18.95732334 7.6910691 22.50398603 15.52515757 25.93139648 23.46191406 C26.82382733 25.52620131 27.72321498 27.5873673 28.62304688 29.6484375 C29.19312491 30.96336114 29.76280172 32.27845882 30.33203125 33.59375 C30.84483643 34.77646484 31.3576416 35.95917969 31.88598633 37.17773438 C33 40 33 40 33 42 C33.66 42 34.32 42 35 42 C35.34804687 40.8553125 35.69609375 39.710625 36.0546875 38.53125 C38.31803467 31.74386814 41.26692872 25.24391901 44.15283203 18.70410156 C45.13411886 16.4793257 46.1084865 14.25161059 47.08203125 12.0234375 C47.70272471 10.60919925 48.32380412 9.19513031 48.9453125 7.78125 C49.23697296 7.11468384 49.52863342 6.44811768 49.82913208 5.76135254 C51.88424529 1.11575471 51.88424529 1.11575471 53 0 C57.95 0 62.9 0 68 0 C68 19.8 68 39.6 68 60 C63.71 60 59.42 60 55 60 C54.67 49.11 54.34 38.22 54 27 C53.00097656 29.29839844 52.00195312 31.59679687 50.97265625 33.96484375 C50.00683293 36.18245782 49.04019977 38.39971719 48.07348633 40.61694336 C47.40043652 42.16182103 46.72823342 43.70706786 46.05688477 45.25268555 C45.09351743 47.47020784 44.12714428 49.68639838 43.16015625 51.90234375 C42.85908463 52.5971434 42.558013 53.29194305 42.24781799 54.00779724 C40.11387171 58.88612829 40.11387171 58.88612829 39 60 C37.31391034 60.07205511 35.62499341 60.08386068 33.9375 60.0625 C33.01839844 60.05347656 32.09929687 60.04445312 31.15234375 60.03515625 C30.44207031 60.02355469 29.73179687 60.01195312 29 60 C23.37602457 49.22657207 18.63986181 38.23334964 14 27 C13.67 37.89 13.34 48.78 13 60 C8.71 60 4.42 60 0 60 C0 40.2 0 20.4 0 0 Z " fill="#615EFC" transform="translate(150,33)"/>
<path d="M0 0 C6.1595523 3.81305618 10.68382904 9.21716556 12.98046875 16.13671875 C13.49473515 18.97282159 13.4688081 21.68215495 13.4375 24.5625 C13.42847656 25.64015625 13.41945313 26.7178125 13.41015625 27.828125 C13.39855469 28.64796875 13.38695313 29.4678125 13.375 30.3125 C9.745 30.3125 6.115 30.3125 2.375 30.3125 C2.2925 28.62125 2.21 26.93 2.125 25.1875 C1.5757686 19.16916153 -0.13099072 15.72337564 -4.5 11.5 C-7.34036265 9.91273852 -9.35977503 9.44054804 -12.625 9.3125 C-17.24700539 10.82660521 -20.5409983 12.51680561 -23.625 16.3125 C-24.7257076 19.6146228 -24.83127072 22.25333279 -24.94140625 25.73046875 C-25.00424805 27.61088867 -25.00424805 27.61088867 -25.06835938 29.52929688 C-25.10767578 30.83962891 -25.14699219 32.14996094 -25.1875 33.5 C-25.23070992 34.83529978 -25.274325 36.17058652 -25.31835938 37.50585938 C-25.42456502 40.77463297 -25.52660997 44.04348333 -25.625 47.3125 C-26.44178223 47.32708252 -27.25856445 47.34166504 -28.10009766 47.35668945 C-31.8171976 47.43136923 -35.53341919 47.52796612 -39.25 47.625 C-41.17779297 47.65883789 -41.17779297 47.65883789 -43.14453125 47.69335938 C-44.38847656 47.72880859 -45.63242187 47.76425781 -46.9140625 47.80078125 C-48.05568848 47.82696533 -49.19731445 47.85314941 -50.37353516 47.88012695 C-55.04704982 48.50160123 -58.5004462 49.87772446 -61.4375 53.625 C-63.49385865 58.27886432 -64.04886286 61.01860284 -62.4375 65.9375 C-60.10987822 70.27169228 -58.3370499 72.7418167 -53.625 74.3125 C-51.85333025 74.46085948 -50.07732388 74.56020018 -48.30078125 74.62890625 C-47.27275391 74.67080078 -46.24472656 74.71269531 -45.18554688 74.75585938 C-44.11369141 74.79517578 -43.04183594 74.83449219 -41.9375 74.875 C-40.85404297 74.91818359 -39.77058594 74.96136719 -38.65429688 75.00585938 C-35.97801615 75.11196742 -33.30152489 75.21274055 -30.625 75.3125 C-30.625 78.9425 -30.625 82.5725 -30.625 86.3125 C-34.60491109 86.42112532 -38.58181378 86.50012775 -42.5625 86.5625 C-43.67947266 86.59601563 -44.79644531 86.62953125 -45.94726562 86.6640625 C-54.51642832 86.76458054 -60.09121624 84.99155404 -67.375 80.6875 C-72.75492157 75.00869389 -74.95262703 69.11216812 -75.25 61.3125 C-74.93856354 53.7724595 -73.17858909 47.81501081 -67.72265625 42.4375 C-60.77921305 36.89340715 -54.40372976 36.01807457 -45.75 36.1875 C-44.87085937 36.19652344 -43.99171875 36.20554688 -43.0859375 36.21484375 C-40.9321729 36.23825423 -38.77854986 36.2741199 -36.625 36.3125 C-36.65980469 35.03375 -36.69460937 33.755 -36.73046875 32.4375 C-36.75862787 30.72917991 -36.78592574 29.02084548 -36.8125 27.3125 C-36.83763672 26.47332031 -36.86277344 25.63414063 -36.88867188 24.76953125 C-36.97694439 17.17809509 -35.55394808 10.4770325 -30.171875 4.69921875 C-21.96998079 -2.65348944 -10.25391935 -4.7475452 0 0 Z " fill="#111032" transform="translate(74.625,1.6875)"/>
<path d="M0 0 C5.07375 -0.0825 10.1475 -0.165 15.375 -0.25 C16.95458496 -0.28641602 18.53416992 -0.32283203 20.16162109 -0.36035156 C31.02356717 -0.44550021 39.58252971 1.31987187 48.2421875 8.2265625 C54.38606859 14.42505586 56.11632442 21.71064977 56.3125 30.1875 C56.22459953 38.83104583 53.77399946 46.06562048 47.84375 52.46484375 C40.87176603 58.26990667 33.45806332 60.13277009 24.609375 60.09765625 C23.31999023 60.09515869 22.03060547 60.09266113 20.70214844 60.09008789 C18.25083496 60.07643188 18.25083496 60.07643188 15.75 60.0625 C7.95375 60.0315625 7.95375 60.0315625 0 60 C0 40.2 0 20.4 0 0 Z M13 10 C13 23.2 13 36.4 13 50 C25.7281867 50.52715777 25.7281867 50.52715777 36.8828125 45.453125 C41.57890229 40.32599316 43.48360312 35.1060018 43.2421875 28.078125 C42.60127375 22.57867155 40.87626964 18.44754131 36.8125 14.625 C29.47184751 8.99716642 22.17111704 10 13 10 Z " fill="#615EFC" transform="translate(282,33)"/>
<path d="M0 0 C14.85 0 29.7 0 45 0 C45 3.3 45 6.6 45 10 C34.44 10 23.88 10 13 10 C13 14.62 13 19.24 13 24 C20.92 24 28.84 24 37 24 C37 27.63 37 31.26 37 35 C29.08 35 21.16 35 13 35 C13 39.95 13 44.9 13 50 C23.56 50 34.12 50 45 50 C45 53.3 45 56.6 45 60 C30.15 60 15.3 60 0 60 C0 40.2 0 20.4 0 0 Z " fill="#615EFC" transform="translate(228,33)"/>
<path d="M0 0 C14.52 0 29.04 0 44 0 C44 3.3 44 6.6 44 10 C33.44 10 22.88 10 12 10 C12 14.29 12 18.58 12 23 C21.9 23 31.8 23 42 23 C42 26.3 42 29.6 42 33 C32.1 33 22.2 33 12 33 C12 38.28 12 43.56 12 49 C22.89 49 33.78 49 45 49 C45 52.3 45 55.6 45 59 C30.15 59 15.3 59 0 59 C0 39.53 0 20.06 0 0 Z " fill="#111032" transform="translate(407,34)"/>
<path d="M0 0 C3.96 0 7.92 0 12 0 C12 7.59 12 15.18 12 23 C19.59 23 27.18 23 35 23 C35 15.41 35 7.82 35 0 C38.96 0 42.92 0 47 0 C47 19.47 47 38.94 47 59 C43.04 59 39.08 59 35 59 C35 50.42 35 41.84 35 33 C27.41 33 19.82 33 12 33 C12 41.58 12 50.16 12 59 C8.04 59 4.08 59 0 59 C0 39.53 0 20.06 0 0 Z " fill="#111032" transform="translate(349,34)"/>
<path d="M0 0 C5.32125 -0.061875 10.6425 -0.12375 16.125 -0.1875 C18.62731201 -0.22846802 18.62731201 -0.22846802 21.18017578 -0.27026367 C22.51854735 -0.27903444 23.85692698 -0.28667698 25.1953125 -0.29296875 C25.877146 -0.30831665 26.55897949 -0.32366455 27.26147461 -0.33947754 C32.59413263 -0.3423663 36.66497421 0.87019026 40.64453125 4.5 C45.7196962 11.01793759 45.68947793 16.94961688 45 25 C43.37280627 30.4022832 39.85372674 33.31495967 35 36 C32.11734851 36.96088383 30.32337729 37.11670941 27.33203125 37.09765625 C26.52741455 37.09515869 25.72279785 37.09266113 24.89379883 37.09008789 C23.87697021 37.08098389 22.8601416 37.07187988 21.8125 37.0625 C16.9553125 37.0315625 16.9553125 37.0315625 12 37 C12 44.26 12 51.52 12 59 C8.04 59 4.08 59 0 59 C0 39.53 0 20.06 0 0 Z M12 10 C12 15.61 12 21.22 12 27 C13.876875 27.04125 15.75375 27.0825 17.6875 27.125 C18.74324219 27.14820312 19.79898438 27.17140625 20.88671875 27.1953125 C24.76367721 26.95209051 27.57927364 25.93082072 30.8125 23.8125 C32.76356067 20.83456529 32.42391943 18.45191537 32 15 C29.6474793 11.80729333 27.82722829 10.68438284 24 10 C21.91765408 9.93256652 19.83331443 9.91485528 17.75 9.9375 C14.90375 9.9684375 14.90375 9.9684375 12 10 Z " fill="#111032" transform="translate(512,34)"/>
<path d="M0 0 C4.29 0 8.58 0 13 0 C13 16.17 13 32.34 13 49 C22.57 49 32.14 49 42 49 C42 52.3 42 55.6 42 59 C28.14 59 14.28 59 0 59 C0 39.53 0 20.06 0 0 Z " fill="#111032" transform="translate(462,34)"/>
<path d="" fill="#111032" transform="translate(0,0)"/>
</svg>
